# xmcd
#
# Track frame offsets:
#	150
#	47181
#	86544
#	109658
#	137474
#	203626
#	252580
#
# Disc length: 4348 seconds
#
# Revision: 2
# Processed by: cddbd v1.5.1PL0 Copyright (c) Steve Scherf et al.
# Submitted via: audiograbber 1.83.01
#
DISCID=5a10fa07
DTITLE=Laco Deczi - Celula New York Live
DYEAR=2004
DGENRE=Jazz
TTITLE0=Angel
TTITLE1=Malaga
TTITLE2=Eagle
TTITLE3=Hammer
TTITLE4=Banany
TTITLE5=Atlantic
TTITLE6=Osteomyelithis
EXTD=
EXTT0=
EXTT1=
EXTT2=
EXTT3=
EXTT4=
EXTT5=
EXTT6=
PLAYORDER=
